<mxfile host="65bd71144e">
    <diagram id="tIrqm7jDpdkEBP31zQ5r" name="Page-1">
        <mxGraphModel dx="1011" dy="427" grid="1" gridSize="10" guides="1" tooltips="1" connect="1" arrows="1" fold="1" page="1" pageScale="1" pageWidth="850" pageHeight="1100" math="0" shadow="0">
            <root>
                <mxCell id="0"/>
                <mxCell id="1" parent="0"/>
                <mxCell id="25" style="edgeStyle=none;html=1;startArrow=diamondThin;startFill=1;endArrow=none;endFill=0;" parent="1" source="2" target="22" edge="1">
                    <mxGeometry relative="1" as="geometry"/>
                </mxCell>
                <mxCell id="2" value="Customer" style="swimlane;fontStyle=0;childLayout=stackLayout;horizontal=1;startSize=26;fillColor=none;horizontalStack=0;resizeParent=1;resizeParentMax=0;resizeLast=0;collapsible=1;marginBottom=0;html=1;" parent="1" vertex="1">
                    <mxGeometry x="97.5" y="50" width="140" height="230" as="geometry"/>
                </mxCell>
                <mxCell id="3" value="-firstName: String&lt;br&gt;-lastName: String&lt;br&gt;#dob: Int&lt;br&gt;#nric: String&lt;br&gt;#address: String&lt;br&gt;-contactNumber: Int&lt;br&gt;-emailAdress: String&lt;br&gt;-jobTitle: String&lt;br&gt;-jobDescription: String" style="text;strokeColor=none;fillColor=none;align=left;verticalAlign=top;spacingLeft=4;spacingRight=4;overflow=hidden;rotatable=0;points=[[0,0.5],[1,0.5]];portConstraint=eastwest;whiteSpace=wrap;html=1;" parent="2" vertex="1">
                    <mxGeometry y="26" width="140" height="144" as="geometry"/>
                </mxCell>
                <mxCell id="11" value="retrieveCustomerInfo()&lt;br&gt;editCustomerInfo()&lt;br&gt;registerCustomer()" style="text;strokeColor=default;fillColor=none;align=left;verticalAlign=top;spacingLeft=4;spacingRight=4;overflow=hidden;rotatable=0;points=[[0,0.5],[1,0.5]];portConstraint=eastwest;whiteSpace=wrap;html=1;" parent="2" vertex="1">
                    <mxGeometry y="170" width="140" height="60" as="geometry"/>
                </mxCell>
                <mxCell id="32" style="html=1;entryX=0.005;entryY=0.959;entryDx=0;entryDy=0;entryPerimeter=0;startArrow=diamondThin;startFill=1;endArrow=none;endFill=0;elbow=vertical;edgeStyle=orthogonalEdgeStyle;curved=1;" parent="1" source="22" target="30" edge="1">
                    <mxGeometry relative="1" as="geometry"/>
                </mxCell>
                <mxCell id="22" value="Accounts" style="swimlane;fontStyle=0;childLayout=stackLayout;horizontal=1;startSize=26;fillColor=none;horizontalStack=0;resizeParent=1;resizeParentMax=0;resizeLast=0;collapsible=1;marginBottom=0;html=1;" parent="1" vertex="1">
                    <mxGeometry x="60" y="330" width="205" height="196" as="geometry"/>
                </mxCell>
                <mxCell id="23" value="+accountName: String&lt;br&gt;+accountNumber: Int&lt;br&gt;+createdDate: Int&lt;br&gt;+accountType: enum accType&lt;br&gt;#totalBalance: Double&lt;br&gt;" style="text;strokeColor=none;fillColor=none;align=left;verticalAlign=top;spacingLeft=4;spacingRight=4;overflow=hidden;rotatable=0;points=[[0,0.5],[1,0.5]];portConstraint=eastwest;whiteSpace=wrap;html=1;" parent="22" vertex="1">
                    <mxGeometry y="26" width="205" height="90" as="geometry"/>
                </mxCell>
                <mxCell id="24" value="createAccount()&lt;br&gt;viewAccount()&lt;br&gt;closeAccount()&lt;br&gt;editAccount()" style="text;strokeColor=default;fillColor=none;align=left;verticalAlign=top;spacingLeft=4;spacingRight=4;overflow=hidden;rotatable=0;points=[[0,0.5],[1,0.5]];portConstraint=eastwest;whiteSpace=wrap;html=1;" parent="22" vertex="1">
                    <mxGeometry y="116" width="205" height="80" as="geometry"/>
                </mxCell>
                <mxCell id="29" value="Transactions" style="swimlane;fontStyle=0;childLayout=stackLayout;horizontal=1;startSize=26;fillColor=none;horizontalStack=0;resizeParent=1;resizeParentMax=0;resizeLast=0;collapsible=1;marginBottom=0;html=1;" parent="1" vertex="1">
                    <mxGeometry x="360" y="330" width="240" height="170" as="geometry"/>
                </mxCell>
                <mxCell id="30" value="+transactionsRefNumber: Int&lt;br&gt;+transactionDate: Int&lt;br&gt;+transactionType: enum transactType&lt;br&gt;+transactionAmount: Double" style="text;strokeColor=none;fillColor=none;align=left;verticalAlign=top;spacingLeft=4;spacingRight=4;overflow=hidden;rotatable=0;points=[[0,0.5],[1,0.5]];portConstraint=eastwest;whiteSpace=wrap;html=1;" parent="29" vertex="1">
                    <mxGeometry y="26" width="240" height="74" as="geometry"/>
                </mxCell>
                <mxCell id="31" value="depositFunds()&lt;br&gt;withdrawFunds()&lt;br&gt;payLoan()&lt;br&gt;viewTransactions()" style="text;strokeColor=default;fillColor=none;align=left;verticalAlign=top;spacingLeft=4;spacingRight=4;overflow=hidden;rotatable=0;points=[[0,0.5],[1,0.5]];portConstraint=eastwest;whiteSpace=wrap;html=1;" parent="29" vertex="1">
                    <mxGeometry y="100" width="240" height="70" as="geometry"/>
                </mxCell>
                <mxCell id="33" value="Savings Account" style="swimlane;fontStyle=0;childLayout=stackLayout;horizontal=1;startSize=26;fillColor=none;horizontalStack=0;resizeParent=1;resizeParentMax=0;resizeLast=0;collapsible=1;marginBottom=0;html=1;" parent="1" vertex="1">
                    <mxGeometry x="47.5" y="630" width="170" height="160" as="geometry"/>
                </mxCell>
                <mxCell id="34" value="#accountBalance: Double&lt;br&gt;#interestRate: Int" style="text;strokeColor=none;fillColor=none;align=left;verticalAlign=top;spacingLeft=4;spacingRight=4;overflow=hidden;rotatable=0;points=[[0,0.5],[1,0.5]];portConstraint=eastwest;whiteSpace=wrap;html=1;" parent="33" vertex="1">
                    <mxGeometry y="26" width="170" height="74" as="geometry"/>
                </mxCell>
                <mxCell id="35" value="viewBalance()&lt;br&gt;viewInterest()&lt;br&gt;setInterest()" style="text;strokeColor=default;fillColor=none;align=left;verticalAlign=top;spacingLeft=4;spacingRight=4;overflow=hidden;rotatable=0;points=[[0,0.5],[1,0.5]];portConstraint=eastwest;whiteSpace=wrap;html=1;" parent="33" vertex="1">
                    <mxGeometry y="100" width="170" height="60" as="geometry"/>
                </mxCell>
                <mxCell id="43" style="edgeStyle=orthogonalEdgeStyle;html=1;startArrow=none;startFill=0;endArrow=block;endFill=0;elbow=vertical;exitX=0.5;exitY=0;exitDx=0;exitDy=0;entryX=0.504;entryY=0.988;entryDx=0;entryDy=0;entryPerimeter=0;" parent="1" source="37" edge="1" target="24">
                    <mxGeometry relative="1" as="geometry">
                        <mxPoint x="150" y="540" as="targetPoint"/>
                        <Array as="points">
                            <mxPoint x="355" y="580"/>
                            <mxPoint x="151" y="580"/>
                        </Array>
                    </mxGeometry>
                </mxCell>
                <mxCell id="37" value="Fixed Deposit Account" style="swimlane;fontStyle=0;childLayout=stackLayout;horizontal=1;startSize=26;fillColor=none;horizontalStack=0;resizeParent=1;resizeParentMax=0;resizeLast=0;collapsible=1;marginBottom=0;html=1;" parent="1" vertex="1">
                    <mxGeometry x="270" y="630" width="170" height="200" as="geometry"/>
                </mxCell>
                <mxCell id="38" value="#accountBalance: Double&lt;br style=&quot;border-color: var(--border-color);&quot;&gt;#interestRate: Int&lt;br&gt;-tenurePeriod: Int" style="text;strokeColor=none;fillColor=none;align=left;verticalAlign=top;spacingLeft=4;spacingRight=4;overflow=hidden;rotatable=0;points=[[0,0.5],[1,0.5]];portConstraint=eastwest;whiteSpace=wrap;html=1;" parent="37" vertex="1">
                    <mxGeometry y="26" width="170" height="74" as="geometry"/>
                </mxCell>
                <mxCell id="39" value="viewBalance()&lt;br style=&quot;border-color: var(--border-color);&quot;&gt;viewInterest()&lt;br&gt;adjustInterest()&lt;br&gt;viewTenure()&lt;br&gt;setTenure()&lt;br&gt;adjustTenure()" style="text;strokeColor=default;fillColor=none;align=left;verticalAlign=top;spacingLeft=4;spacingRight=4;overflow=hidden;rotatable=0;points=[[0,0.5],[1,0.5]];portConstraint=eastwest;whiteSpace=wrap;html=1;" parent="37" vertex="1">
                    <mxGeometry y="100" width="170" height="100" as="geometry"/>
                </mxCell>
            </root>
        </mxGraphModel>
    </diagram>
</mxfile>